<mxfile host="app.diagrams.net" modified="2023-01-29T20:38:21.602Z" agent="5.0 (X11; Linux x86_64) AppleWebKit/537.36 (KHTML, like Gecko) Chrome/109.0.0.0 Safari/537.36" etag="o9udhQ687tsBSlF2vdBZ" version="20.8.13" type="github" pages="2">
  <diagram name="Org-GCP" id="qWbsYyx7yUVWrLBtKBQk">
    <mxGraphModel dx="1434" dy="748" grid="1" gridSize="10" guides="1" tooltips="1" connect="1" arrows="1" fold="1" page="1" pageScale="1" pageWidth="827" pageHeight="1169" math="0" shadow="0">
      <root>
        <mxCell id="0" />
        <mxCell id="1" parent="0" />
        <mxCell id="30p8xP6BXVfEvmPfyUbN-12" style="edgeStyle=orthogonalEdgeStyle;rounded=0;orthogonalLoop=1;jettySize=auto;html=1;exitX=0;exitY=0.5;exitDx=0;exitDy=0;entryX=0.5;entryY=0;entryDx=0;entryDy=0;" edge="1" parent="1" source="30p8xP6BXVfEvmPfyUbN-1" target="30p8xP6BXVfEvmPfyUbN-2">
          <mxGeometry relative="1" as="geometry" />
        </mxCell>
        <mxCell id="30p8xP6BXVfEvmPfyUbN-13" style="edgeStyle=orthogonalEdgeStyle;rounded=0;orthogonalLoop=1;jettySize=auto;html=1;exitX=1;exitY=0.5;exitDx=0;exitDy=0;" edge="1" parent="1" source="30p8xP6BXVfEvmPfyUbN-1" target="30p8xP6BXVfEvmPfyUbN-3">
          <mxGeometry relative="1" as="geometry" />
        </mxCell>
        <mxCell id="30p8xP6BXVfEvmPfyUbN-1" value="suno" style="rounded=0;whiteSpace=wrap;html=1;" vertex="1" parent="1">
          <mxGeometry x="354" y="60" width="120" height="60" as="geometry" />
        </mxCell>
        <mxCell id="30p8xP6BXVfEvmPfyUbN-14" style="edgeStyle=orthogonalEdgeStyle;rounded=0;orthogonalLoop=1;jettySize=auto;html=1;exitX=0.5;exitY=1;exitDx=0;exitDy=0;entryX=0.5;entryY=0;entryDx=0;entryDy=0;" edge="1" parent="1" source="30p8xP6BXVfEvmPfyUbN-2" target="30p8xP6BXVfEvmPfyUbN-4">
          <mxGeometry relative="1" as="geometry" />
        </mxCell>
        <mxCell id="30p8xP6BXVfEvmPfyUbN-2" value="Financeiro" style="rounded=0;whiteSpace=wrap;html=1;" vertex="1" parent="1">
          <mxGeometry x="170" y="160" width="120" height="60" as="geometry" />
        </mxCell>
        <mxCell id="30p8xP6BXVfEvmPfyUbN-17" style="edgeStyle=orthogonalEdgeStyle;rounded=0;orthogonalLoop=1;jettySize=auto;html=1;exitX=0.5;exitY=1;exitDx=0;exitDy=0;entryX=0.425;entryY=-0.05;entryDx=0;entryDy=0;entryPerimeter=0;" edge="1" parent="1" source="30p8xP6BXVfEvmPfyUbN-3" target="30p8xP6BXVfEvmPfyUbN-8">
          <mxGeometry relative="1" as="geometry" />
        </mxCell>
        <mxCell id="30p8xP6BXVfEvmPfyUbN-3" value="Marketing" style="rounded=0;whiteSpace=wrap;html=1;" vertex="1" parent="1">
          <mxGeometry x="620" y="160" width="120" height="60" as="geometry" />
        </mxCell>
        <mxCell id="30p8xP6BXVfEvmPfyUbN-15" style="edgeStyle=orthogonalEdgeStyle;rounded=0;orthogonalLoop=1;jettySize=auto;html=1;exitX=0;exitY=0.5;exitDx=0;exitDy=0;entryX=0.5;entryY=0;entryDx=0;entryDy=0;" edge="1" parent="1" source="30p8xP6BXVfEvmPfyUbN-4" target="30p8xP6BXVfEvmPfyUbN-5">
          <mxGeometry relative="1" as="geometry" />
        </mxCell>
        <mxCell id="30p8xP6BXVfEvmPfyUbN-16" style="edgeStyle=orthogonalEdgeStyle;rounded=0;orthogonalLoop=1;jettySize=auto;html=1;exitX=1;exitY=0.5;exitDx=0;exitDy=0;entryX=0.567;entryY=-0.05;entryDx=0;entryDy=0;entryPerimeter=0;" edge="1" parent="1" source="30p8xP6BXVfEvmPfyUbN-4" target="30p8xP6BXVfEvmPfyUbN-6">
          <mxGeometry relative="1" as="geometry" />
        </mxCell>
        <mxCell id="30p8xP6BXVfEvmPfyUbN-4" value="Sales Force" style="rounded=0;whiteSpace=wrap;html=1;" vertex="1" parent="1">
          <mxGeometry x="170" y="260" width="120" height="60" as="geometry" />
        </mxCell>
        <mxCell id="30p8xP6BXVfEvmPfyUbN-5" value="Teste" style="rounded=0;whiteSpace=wrap;html=1;" vertex="1" parent="1">
          <mxGeometry x="60" y="360" width="120" height="60" as="geometry" />
        </mxCell>
        <mxCell id="30p8xP6BXVfEvmPfyUbN-6" value="Produção" style="rounded=0;whiteSpace=wrap;html=1;" vertex="1" parent="1">
          <mxGeometry x="290" y="360" width="120" height="60" as="geometry" />
        </mxCell>
        <mxCell id="30p8xP6BXVfEvmPfyUbN-7" value="Teste" style="rounded=0;whiteSpace=wrap;html=1;" vertex="1" parent="1">
          <mxGeometry x="474" y="360" width="120" height="60" as="geometry" />
        </mxCell>
        <mxCell id="30p8xP6BXVfEvmPfyUbN-18" style="edgeStyle=orthogonalEdgeStyle;rounded=0;orthogonalLoop=1;jettySize=auto;html=1;exitX=0;exitY=0.5;exitDx=0;exitDy=0;entryX=0.417;entryY=-0.033;entryDx=0;entryDy=0;entryPerimeter=0;" edge="1" parent="1" source="30p8xP6BXVfEvmPfyUbN-8" target="30p8xP6BXVfEvmPfyUbN-7">
          <mxGeometry relative="1" as="geometry" />
        </mxCell>
        <mxCell id="30p8xP6BXVfEvmPfyUbN-19" style="edgeStyle=orthogonalEdgeStyle;rounded=0;orthogonalLoop=1;jettySize=auto;html=1;exitX=1;exitY=0.5;exitDx=0;exitDy=0;" edge="1" parent="1" source="30p8xP6BXVfEvmPfyUbN-8" target="30p8xP6BXVfEvmPfyUbN-9">
          <mxGeometry relative="1" as="geometry" />
        </mxCell>
        <mxCell id="30p8xP6BXVfEvmPfyUbN-8" value="WordPress" style="rounded=0;whiteSpace=wrap;html=1;" vertex="1" parent="1">
          <mxGeometry x="570" y="270" width="120" height="60" as="geometry" />
        </mxCell>
        <mxCell id="30p8xP6BXVfEvmPfyUbN-9" value="Produção" style="rounded=0;whiteSpace=wrap;html=1;" vertex="1" parent="1">
          <mxGeometry x="660" y="360" width="120" height="60" as="geometry" />
        </mxCell>
        <mxCell id="jpbySltI7WrJQ79-2XJy-2" value="suno-financeiro-salesforce-teste" style="whiteSpace=wrap;html=1;aspect=fixed;fillColor=#fff2cc;strokeColor=#d6b656;" vertex="1" parent="1">
          <mxGeometry x="80" y="450" width="80" height="80" as="geometry" />
        </mxCell>
        <mxCell id="jpbySltI7WrJQ79-2XJy-3" value="&lt;span style=&quot;color: rgb(0, 0, 0); font-family: Helvetica; font-size: 12px; font-style: normal; font-variant-ligatures: normal; font-variant-caps: normal; font-weight: 400; letter-spacing: normal; orphans: 2; text-align: center; text-indent: 0px; text-transform: none; widows: 2; word-spacing: 0px; -webkit-text-stroke-width: 0px; background-color: rgb(251, 251, 251); text-decoration-thickness: initial; text-decoration-style: initial; text-decoration-color: initial; float: none; display: inline !important;&quot;&gt;suno-marketing-wordpress-prod&lt;/span&gt;" style="whiteSpace=wrap;html=1;aspect=fixed;fillColor=#fff2cc;strokeColor=#d6b656;" vertex="1" parent="1">
          <mxGeometry x="680" y="451" width="80" height="80" as="geometry" />
        </mxCell>
        <mxCell id="jpbySltI7WrJQ79-2XJy-4" value="suno-financeiro-salesforce-prod" style="whiteSpace=wrap;html=1;aspect=fixed;fillColor=#fff2cc;strokeColor=#d6b656;" vertex="1" parent="1">
          <mxGeometry x="300" y="450" width="80" height="80" as="geometry" />
        </mxCell>
        <mxCell id="jpbySltI7WrJQ79-2XJy-5" value="suno-marketing-wordpress-teste" style="whiteSpace=wrap;html=1;aspect=fixed;fillColor=#fff2cc;strokeColor=#d6b656;" vertex="1" parent="1">
          <mxGeometry x="494" y="450" width="80" height="80" as="geometry" />
        </mxCell>
        <mxCell id="jpbySltI7WrJQ79-2XJy-6" value="" style="shape=image;html=1;verticalAlign=top;verticalLabelPosition=bottom;labelBackgroundColor=#ffffff;imageAspect=0;aspect=fixed;image=https://cdn1.iconfinder.com/data/icons/hawcons/32/698929-icon-96-folders-128.png" vertex="1" parent="1">
          <mxGeometry x="150" y="140" width="38" height="38" as="geometry" />
        </mxCell>
        <mxCell id="jpbySltI7WrJQ79-2XJy-8" value="" style="shape=image;html=1;verticalAlign=top;verticalLabelPosition=bottom;labelBackgroundColor=#ffffff;imageAspect=0;aspect=fixed;image=https://cdn1.iconfinder.com/data/icons/hawcons/32/698929-icon-96-folders-128.png" vertex="1" parent="1">
          <mxGeometry x="150" y="240" width="38" height="38" as="geometry" />
        </mxCell>
        <mxCell id="jpbySltI7WrJQ79-2XJy-9" value="" style="shape=image;html=1;verticalAlign=top;verticalLabelPosition=bottom;labelBackgroundColor=#ffffff;imageAspect=0;aspect=fixed;image=https://cdn1.iconfinder.com/data/icons/hawcons/32/698929-icon-96-folders-128.png" vertex="1" parent="1">
          <mxGeometry x="42" y="340" width="38" height="38" as="geometry" />
        </mxCell>
        <mxCell id="jpbySltI7WrJQ79-2XJy-10" value="" style="shape=image;html=1;verticalAlign=top;verticalLabelPosition=bottom;labelBackgroundColor=#ffffff;imageAspect=0;aspect=fixed;image=https://cdn1.iconfinder.com/data/icons/hawcons/32/698929-icon-96-folders-128.png" vertex="1" parent="1">
          <mxGeometry x="270" y="340" width="38" height="38" as="geometry" />
        </mxCell>
        <mxCell id="jpbySltI7WrJQ79-2XJy-11" value="" style="shape=image;html=1;verticalAlign=top;verticalLabelPosition=bottom;labelBackgroundColor=#ffffff;imageAspect=0;aspect=fixed;image=https://cdn1.iconfinder.com/data/icons/hawcons/32/698929-icon-96-folders-128.png" vertex="1" parent="1">
          <mxGeometry x="610" y="140" width="38" height="38" as="geometry" />
        </mxCell>
        <mxCell id="jpbySltI7WrJQ79-2XJy-12" value="" style="shape=image;html=1;verticalAlign=top;verticalLabelPosition=bottom;labelBackgroundColor=#ffffff;imageAspect=0;aspect=fixed;image=https://cdn1.iconfinder.com/data/icons/hawcons/32/698929-icon-96-folders-128.png" vertex="1" parent="1">
          <mxGeometry x="556" y="250" width="38" height="38" as="geometry" />
        </mxCell>
        <mxCell id="jpbySltI7WrJQ79-2XJy-13" value="" style="shape=image;html=1;verticalAlign=top;verticalLabelPosition=bottom;labelBackgroundColor=#ffffff;imageAspect=0;aspect=fixed;image=https://cdn1.iconfinder.com/data/icons/hawcons/32/698929-icon-96-folders-128.png" vertex="1" parent="1">
          <mxGeometry x="456" y="340" width="38" height="38" as="geometry" />
        </mxCell>
        <mxCell id="jpbySltI7WrJQ79-2XJy-14" value="" style="shape=image;html=1;verticalAlign=top;verticalLabelPosition=bottom;labelBackgroundColor=#ffffff;imageAspect=0;aspect=fixed;image=https://cdn1.iconfinder.com/data/icons/hawcons/32/698929-icon-96-folders-128.png" vertex="1" parent="1">
          <mxGeometry x="642" y="340" width="38" height="38" as="geometry" />
        </mxCell>
      </root>
    </mxGraphModel>
  </diagram>
  <diagram id="bnSMEfWSxyL25ju5KZUT" name="Org-grupos">
    <mxGraphModel dx="1434" dy="748" grid="1" gridSize="10" guides="1" tooltips="1" connect="1" arrows="1" fold="1" page="1" pageScale="1" pageWidth="827" pageHeight="1169" math="0" shadow="0">
      <root>
        <mxCell id="0" />
        <mxCell id="1" parent="0" />
        <mxCell id="pq-kEgfI5A8axtiyv3OC-5" style="edgeStyle=orthogonalEdgeStyle;rounded=0;orthogonalLoop=1;jettySize=auto;html=1;exitX=1;exitY=0.5;exitDx=0;exitDy=0;entryX=0.5;entryY=0;entryDx=0;entryDy=0;" edge="1" parent="1" source="h2X08Re1CWbESjCuIPze-1" target="h2X08Re1CWbESjCuIPze-2">
          <mxGeometry relative="1" as="geometry" />
        </mxCell>
        <mxCell id="pq-kEgfI5A8axtiyv3OC-6" style="edgeStyle=orthogonalEdgeStyle;rounded=0;orthogonalLoop=1;jettySize=auto;html=1;exitX=1;exitY=0.25;exitDx=0;exitDy=0;entryX=0.5;entryY=0;entryDx=0;entryDy=0;" edge="1" parent="1" source="h2X08Re1CWbESjCuIPze-1" target="h2X08Re1CWbESjCuIPze-5">
          <mxGeometry relative="1" as="geometry" />
        </mxCell>
        <mxCell id="pq-kEgfI5A8axtiyv3OC-7" style="edgeStyle=orthogonalEdgeStyle;rounded=0;orthogonalLoop=1;jettySize=auto;html=1;exitX=0;exitY=0.25;exitDx=0;exitDy=0;entryX=0.4;entryY=0.017;entryDx=0;entryDy=0;entryPerimeter=0;" edge="1" parent="1" source="h2X08Re1CWbESjCuIPze-1" target="h2X08Re1CWbESjCuIPze-4">
          <mxGeometry relative="1" as="geometry" />
        </mxCell>
        <mxCell id="pq-kEgfI5A8axtiyv3OC-8" style="edgeStyle=orthogonalEdgeStyle;rounded=0;orthogonalLoop=1;jettySize=auto;html=1;exitX=0;exitY=0.5;exitDx=0;exitDy=0;" edge="1" parent="1" source="h2X08Re1CWbESjCuIPze-1" target="h2X08Re1CWbESjCuIPze-3">
          <mxGeometry relative="1" as="geometry" />
        </mxCell>
        <mxCell id="h2X08Re1CWbESjCuIPze-1" value="suno.com.br" style="rounded=0;whiteSpace=wrap;html=1;" vertex="1" parent="1">
          <mxGeometry x="350" y="140" width="120" height="60" as="geometry" />
        </mxCell>
        <mxCell id="pq-kEgfI5A8axtiyv3OC-15" style="edgeStyle=orthogonalEdgeStyle;rounded=0;orthogonalLoop=1;jettySize=auto;html=1;exitX=0.5;exitY=1;exitDx=0;exitDy=0;entryX=0.551;entryY=-0.06;entryDx=0;entryDy=0;entryPerimeter=0;" edge="1" parent="1" source="h2X08Re1CWbESjCuIPze-2" target="pq-kEgfI5A8axtiyv3OC-12">
          <mxGeometry relative="1" as="geometry" />
        </mxCell>
        <mxCell id="h2X08Re1CWbESjCuIPze-2" value="infra" style="rounded=0;whiteSpace=wrap;html=1;" vertex="1" parent="1">
          <mxGeometry x="480" y="240" width="120" height="60" as="geometry" />
        </mxCell>
        <mxCell id="pq-kEgfI5A8axtiyv3OC-14" style="edgeStyle=orthogonalEdgeStyle;rounded=0;orthogonalLoop=1;jettySize=auto;html=1;exitX=0.5;exitY=1;exitDx=0;exitDy=0;entryX=0.5;entryY=-0.04;entryDx=0;entryDy=0;entryPerimeter=0;" edge="1" parent="1" source="h2X08Re1CWbESjCuIPze-3" target="pq-kEgfI5A8axtiyv3OC-10">
          <mxGeometry relative="1" as="geometry" />
        </mxCell>
        <mxCell id="h2X08Re1CWbESjCuIPze-3" value="marketing" style="rounded=0;whiteSpace=wrap;html=1;" vertex="1" parent="1">
          <mxGeometry x="230" y="240" width="120" height="60" as="geometry" />
        </mxCell>
        <mxCell id="pq-kEgfI5A8axtiyv3OC-13" style="edgeStyle=orthogonalEdgeStyle;rounded=0;orthogonalLoop=1;jettySize=auto;html=1;exitX=0.5;exitY=1;exitDx=0;exitDy=0;entryX=0.603;entryY=0.04;entryDx=0;entryDy=0;entryPerimeter=0;" edge="1" parent="1" source="h2X08Re1CWbESjCuIPze-4" target="pq-kEgfI5A8axtiyv3OC-9">
          <mxGeometry relative="1" as="geometry" />
        </mxCell>
        <mxCell id="h2X08Re1CWbESjCuIPze-4" value="financeiro" style="rounded=0;whiteSpace=wrap;html=1;" vertex="1" parent="1">
          <mxGeometry x="40" y="240" width="120" height="60" as="geometry" />
        </mxCell>
        <mxCell id="pq-kEgfI5A8axtiyv3OC-16" style="edgeStyle=orthogonalEdgeStyle;rounded=0;orthogonalLoop=1;jettySize=auto;html=1;exitX=0.5;exitY=1;exitDx=0;exitDy=0;entryX=0.603;entryY=-0.02;entryDx=0;entryDy=0;entryPerimeter=0;" edge="1" parent="1" source="h2X08Re1CWbESjCuIPze-5" target="pq-kEgfI5A8axtiyv3OC-11">
          <mxGeometry relative="1" as="geometry" />
        </mxCell>
        <mxCell id="h2X08Re1CWbESjCuIPze-5" value="infosec" style="rounded=0;whiteSpace=wrap;html=1;" vertex="1" parent="1">
          <mxGeometry x="660" y="240" width="120" height="60" as="geometry" />
        </mxCell>
        <mxCell id="pq-kEgfI5A8axtiyv3OC-1" value="" style="verticalLabelPosition=bottom;sketch=0;html=1;fillColor=#282828;strokeColor=none;verticalAlign=top;pointerEvents=1;align=center;shape=mxgraph.cisco_safe.people_places_things_icons.icon9;" vertex="1" parent="1">
          <mxGeometry x="30" y="230" width="30" height="25" as="geometry" />
        </mxCell>
        <mxCell id="pq-kEgfI5A8axtiyv3OC-2" value="" style="verticalLabelPosition=bottom;sketch=0;html=1;fillColor=#282828;strokeColor=none;verticalAlign=top;pointerEvents=1;align=center;shape=mxgraph.cisco_safe.people_places_things_icons.icon9;" vertex="1" parent="1">
          <mxGeometry x="220" y="230" width="30" height="25" as="geometry" />
        </mxCell>
        <mxCell id="pq-kEgfI5A8axtiyv3OC-3" value="" style="verticalLabelPosition=bottom;sketch=0;html=1;fillColor=#282828;strokeColor=none;verticalAlign=top;pointerEvents=1;align=center;shape=mxgraph.cisco_safe.people_places_things_icons.icon9;" vertex="1" parent="1">
          <mxGeometry x="470" y="230" width="30" height="25" as="geometry" />
        </mxCell>
        <mxCell id="pq-kEgfI5A8axtiyv3OC-4" value="" style="verticalLabelPosition=bottom;sketch=0;html=1;fillColor=#282828;strokeColor=none;verticalAlign=top;pointerEvents=1;align=center;shape=mxgraph.cisco_safe.people_places_things_icons.icon9;" vertex="1" parent="1">
          <mxGeometry x="650" y="230" width="30" height="25" as="geometry" />
        </mxCell>
        <mxCell id="pq-kEgfI5A8axtiyv3OC-9" value="" style="verticalLabelPosition=bottom;sketch=0;html=1;fillColor=#282828;strokeColor=none;verticalAlign=top;pointerEvents=1;align=center;shape=mxgraph.cisco_safe.people_places_things_icons.icon8;" vertex="1" parent="1">
          <mxGeometry x="90.25" y="380" width="19.5" height="50" as="geometry" />
        </mxCell>
        <mxCell id="pq-kEgfI5A8axtiyv3OC-10" value="" style="verticalLabelPosition=bottom;sketch=0;html=1;fillColor=#282828;strokeColor=none;verticalAlign=top;pointerEvents=1;align=center;shape=mxgraph.cisco_safe.people_places_things_icons.icon8;" vertex="1" parent="1">
          <mxGeometry x="280.25" y="380" width="19.5" height="50" as="geometry" />
        </mxCell>
        <mxCell id="pq-kEgfI5A8axtiyv3OC-11" value="" style="verticalLabelPosition=bottom;sketch=0;html=1;fillColor=#282828;strokeColor=none;verticalAlign=top;pointerEvents=1;align=center;shape=mxgraph.cisco_safe.people_places_things_icons.icon8;" vertex="1" parent="1">
          <mxGeometry x="710.25" y="380" width="19.5" height="50" as="geometry" />
        </mxCell>
        <mxCell id="pq-kEgfI5A8axtiyv3OC-12" value="" style="verticalLabelPosition=bottom;sketch=0;html=1;fillColor=#282828;strokeColor=none;verticalAlign=top;pointerEvents=1;align=center;shape=mxgraph.cisco_safe.people_places_things_icons.icon8;" vertex="1" parent="1">
          <mxGeometry x="530.25" y="380" width="19.5" height="50" as="geometry" />
        </mxCell>
      </root>
    </mxGraphModel>
  </diagram>
</mxfile>
